<?xml version="1.0" encoding="UTF-8"?>
<svg width="32px" height="32px" viewBox="0 0 32 32" version="1.1" xmlns="http://www.w3.org/2000/svg" xmlns:xlink="http://www.w3.org/1999/xlink">
    <!-- Generator: Sketch 55.1 (78136) - https://sketchapp.com -->
    <title>icon_home_search</title>
    <desc>Created with Sketch.</desc>
    <defs>
        <path d="M25.4207874,22.859193 L31.4694764,28.9078821 C32.1768412,29.6152468 32.1768412,30.7621117 31.4694764,31.4694764 C30.7621117,32.1768412 29.6152468,32.1768412 28.9078821,31.4694764 L22.859193,25.4207874 C20.4614476,27.274424 17.4538655,28.3773585 14.1886792,28.3773585 C6.35248808,28.3773585 0,22.0248704 0,14.1886792 C0,6.35248808 6.35248808,0 14.1886792,0 C22.0248704,0 28.3773585,6.35248808 28.3773585,14.1886792 C28.3773585,17.4538655 27.274424,20.4614476 25.4207874,22.859193 Z M14.1886792,24.754717 C20.0241408,24.754717 24.754717,20.0241408 24.754717,14.1886792 C24.754717,8.35321774 20.0241408,3.62264151 14.1886792,3.62264151 C8.35321774,3.62264151 3.62264151,8.35321774 3.62264151,14.1886792 C3.62264151,20.0241408 8.35321774,24.754717 14.1886792,24.754717 Z" id="path-1"></path>
    </defs>
    <g id="页面1" stroke="none" stroke-width="1" fill="none" fill-rule="evenodd">
        <g id="深蓝保小程序_V2.5_首页_精选_2" transform="translate(-68.000000, -64.000000)">
            <g id="导航-/iOS/常规">
                <g id="编组-2" transform="translate(30.000000, 50.000000)">
                    <g id="搜索" transform="translate(38.000000, 10.000000)">
                        <g id="icon_home_search" transform="translate(0.000000, 4.000000)">
                            <mask id="mask-2" fill="white">
                                <use xlink:href="#path-1"></use>
                            </mask>
                            <use id="Combined-Shape" fill="#ABABAB" fill-rule="nonzero" xlink:href="#path-1"></use>
                        </g>
                    </g>
                </g>
            </g>
        </g>
    </g>
</svg>